<svg width="313" height="71" viewBox="0 0 313 71" fill="none" xmlns="http://www.w3.org/2000/svg">
<path d="M3.09944e-06 69.8182V0H16.6705V26.4205H17.0114C17.6932 24.8295 18.6591 23.2955 19.9091 21.8182C21.1818 20.3409 22.7955 19.1364 24.75 18.2045C26.7273 17.25 29.0909 16.7727 31.8409 16.7727C35.4773 16.7727 38.875 17.7273 42.0341 19.6364C45.2159 21.5455 47.7841 24.4886 49.7386 28.4659C51.6932 32.4432 52.6705 37.5114 52.6705 43.6705C52.6705 49.6023 51.7273 54.5682 49.8409 58.5682C47.9773 62.5682 45.4545 65.5682 42.2727 67.5682C39.1136 69.5682 35.6023 70.5682 31.7386 70.5682C29.1023 70.5682 26.8182 70.1364 24.8864 69.2727C22.9545 68.4091 21.3295 67.2727 20.0114 65.8636C18.7159 64.4545 17.7159 62.9432 17.0114 61.3295H16.5V69.8182H3.09944e-06ZM16.3295 43.6364C16.3295 46.4545 16.7045 48.9091 17.4545 51C18.2273 53.0909 19.3295 54.7159 20.7614 55.875C22.2159 57.0114 23.9545 57.5795 25.9773 57.5795C28.0227 57.5795 29.7614 57.0114 31.1932 55.875C32.625 54.7159 33.7045 53.0909 34.4318 51C35.1818 48.9091 35.5568 46.4545 35.5568 43.6364C35.5568 40.8182 35.1818 38.375 34.4318 36.3068C33.7045 34.2386 32.625 32.6364 31.1932 31.5C29.7841 30.3636 28.0455 29.7955 25.9773 29.7955C23.9318 29.7955 22.1932 30.3523 20.7614 31.4659C19.3295 32.5795 18.2273 34.1705 17.4545 36.2386C16.7045 38.3068 16.3295 40.7727 16.3295 43.6364ZM69.4476 70.7045C66.1067 70.7045 63.1408 70.1477 60.5499 69.0341C57.9817 67.8977 55.9476 66.1932 54.4476 63.9205C52.9703 61.625 52.2317 58.75 52.2317 55.2955C52.2317 52.3864 52.7431 49.9318 53.7658 47.9318C54.7885 45.9318 56.1976 44.3068 57.9931 43.0568C59.7885 41.8068 61.8567 40.8636 64.1976 40.2273C66.5385 39.5682 69.0385 39.125 71.6976 38.8977C74.6749 38.625 77.0726 38.3409 78.8908 38.0455C80.709 37.7273 82.0272 37.2841 82.8453 36.7159C83.6863 36.125 84.1067 35.2955 84.1067 34.2273V34.0568C84.1067 32.3068 83.5044 30.9545 82.2999 30C81.0953 29.0455 79.4703 28.5682 77.4249 28.5682C75.2203 28.5682 73.4476 29.0455 72.1067 30C70.7658 30.9545 69.9135 32.2727 69.5499 33.9545L54.1749 33.4091C54.6294 30.2273 55.7999 27.3864 57.6863 24.8864C59.5953 22.3636 62.209 20.3864 65.5272 18.9545C68.8681 17.5 72.8794 16.7727 77.5613 16.7727C80.9022 16.7727 83.9817 17.1705 86.7999 17.9659C89.6181 18.7386 92.0726 19.875 94.1635 21.375C96.2544 22.8523 97.8681 24.6705 99.0044 26.8295C100.164 28.9886 100.743 31.4545 100.743 34.2273V69.8182H85.0613V62.5227H84.6522C83.7203 64.2955 82.5272 65.7955 81.0726 67.0227C79.6408 68.25 77.9476 69.1705 75.9931 69.7841C74.0613 70.3977 71.8794 70.7045 69.4476 70.7045ZM74.5953 59.7955C76.3908 59.7955 78.0044 59.4318 79.4363 58.7045C80.8908 57.9773 82.0499 56.9773 82.9135 55.7045C83.7772 54.4091 84.209 52.9091 84.209 51.2045V46.2273C83.7317 46.4773 83.1522 46.7045 82.4703 46.9091C81.8113 47.1136 81.084 47.3068 80.2885 47.4886C79.4931 47.6705 78.6749 47.8295 77.834 47.9659C76.9931 48.1023 76.1863 48.2273 75.4135 48.3409C73.8453 48.5909 72.5044 48.9773 71.3908 49.5C70.2999 50.0227 69.459 50.7045 68.8681 51.5455C68.2999 52.3636 68.0158 53.3409 68.0158 54.4773C68.0158 56.2045 68.6294 57.5227 69.8567 58.4318C71.1067 59.3409 72.6863 59.7955 74.5953 59.7955ZM120.887 39.9545V69.8182H104.216V0H120.341V27.0682H120.921C122.103 23.8409 124.034 21.3182 126.716 19.5C129.421 17.6818 132.728 16.7727 136.637 16.7727C140.319 16.7727 143.523 17.5909 146.25 19.2273C148.978 20.8409 151.091 23.125 152.591 26.0795C154.114 29.0341 154.864 32.4886 154.841 36.4432V69.8182H138.171V39.7159C138.194 36.8068 137.466 34.5341 135.989 32.8977C134.512 31.2614 132.432 30.4432 129.75 30.4432C128 30.4432 126.455 30.8295 125.114 31.6023C123.796 32.3523 122.762 33.4318 122.012 34.8409C121.284 36.25 120.909 37.9545 120.887 39.9545ZM175.198 39.9545V69.8182H158.527V0H174.653V27.0682H175.232C176.414 23.8409 178.346 21.3182 181.028 19.5C183.732 17.6818 187.039 16.7727 190.948 16.7727C194.63 16.7727 197.834 17.5909 200.562 19.2273C203.289 20.8409 205.403 23.125 206.903 26.0795C208.425 29.0341 209.175 32.4886 209.153 36.4432V69.8182H192.482V39.7159C192.505 36.8068 191.778 34.5341 190.3 32.8977C188.823 31.2614 186.743 30.4432 184.062 30.4432C182.312 30.4432 180.766 30.8295 179.425 31.6023C178.107 32.3523 177.073 33.4318 176.323 34.8409C175.596 36.25 175.221 37.9545 175.198 39.9545ZM237.282 70.8068C231.782 70.8068 227.055 69.6818 223.1 67.4318C219.168 65.1591 216.134 62 213.998 57.9545C211.884 53.8864 210.827 49.1705 210.827 43.8068C210.827 38.4205 211.884 33.7045 213.998 29.6591C216.134 25.5909 219.168 22.4318 223.1 20.1818C227.055 17.9091 231.782 16.7727 237.282 16.7727C242.782 16.7727 247.498 17.9091 251.43 20.1818C255.384 22.4318 258.418 25.5909 260.532 29.6591C262.668 33.7045 263.736 38.4205 263.736 43.8068C263.736 49.1705 262.668 53.8864 260.532 57.9545C258.418 62 255.384 65.1591 251.43 67.4318C247.498 69.6818 242.782 70.8068 237.282 70.8068ZM237.384 58.2273C239.384 58.2273 241.077 57.6136 242.464 56.3864C243.85 55.1591 244.907 53.4545 245.634 51.2727C246.384 49.0909 246.759 46.5682 246.759 43.7045C246.759 40.7955 246.384 38.25 245.634 36.0682C244.907 33.8864 243.85 32.1818 242.464 30.9545C241.077 29.7273 239.384 29.1136 237.384 29.1136C235.316 29.1136 233.566 29.7273 232.134 30.9545C230.725 32.1818 229.646 33.8864 228.896 36.0682C228.168 38.25 227.805 40.7955 227.805 43.7045C227.805 46.5682 228.168 49.0909 228.896 51.2727C229.646 53.4545 230.725 55.1591 232.134 56.3864C233.566 57.6136 235.316 58.2273 237.384 58.2273ZM311.272 33.4432L295.965 33.8523C295.806 32.7614 295.374 31.7955 294.67 30.9545C293.965 30.0909 293.045 29.4205 291.909 28.9432C290.795 28.4432 289.499 28.1932 288.022 28.1932C286.09 28.1932 284.443 28.5795 283.079 29.3523C281.738 30.125 281.079 31.1705 281.102 32.4886C281.079 33.5114 281.488 34.3977 282.329 35.1477C283.193 35.8977 284.727 36.5 286.931 36.9545L297.022 38.8636C302.249 39.8636 306.136 41.5227 308.681 43.8409C311.249 46.1591 312.545 49.2273 312.568 53.0455C312.545 56.6364 311.477 59.7614 309.363 62.4205C307.272 65.0795 304.409 67.1477 300.772 68.625C297.136 70.0795 292.977 70.8068 288.295 70.8068C280.818 70.8068 274.92 69.2727 270.602 66.2045C266.306 63.1136 263.852 58.9773 263.238 53.7955L279.704 53.3864C280.068 55.2955 281.011 56.75 282.534 57.75C284.056 58.75 285.999 59.25 288.363 59.25C290.499 59.25 292.238 58.8523 293.579 58.0568C294.92 57.2614 295.602 56.2045 295.624 54.8864C295.602 53.7045 295.079 52.7614 294.056 52.0568C293.034 51.3295 291.431 50.7614 289.249 50.3523L280.113 48.6136C274.863 47.6591 270.954 45.8977 268.386 43.3295C265.818 40.7386 264.545 37.4432 264.568 33.4432C264.545 29.9432 265.477 26.9545 267.363 24.4773C269.249 21.9773 271.931 20.0682 275.409 18.75C278.886 17.4318 282.988 16.7727 287.715 16.7727C294.806 16.7727 300.397 18.2614 304.488 21.2386C308.579 24.1932 310.84 28.2614 311.272 33.4432Z" fill="white"/>
</svg>
